<?xml version="1.0" encoding="UTF-8"?>
<!DOCTYPE svg PUBLIC "-//W3C//DTD SVG 1.1//EN" "http://www.w3.org/Graphics/SVG/1.1/DTD/svg11.dtd">
<svg xmlns="http://www.w3.org/2000/svg" version="1.1" width="1536px" height="502px" style="shape-rendering:geometricPrecision; text-rendering:geometricPrecision; image-rendering:optimizeQuality; fill-rule:evenodd; clip-rule:evenodd" xmlns:xlink="http://www.w3.org/1999/xlink">
<g><path style="opacity:1" fill="#fa1509" d="M 388.5,181.5 C 392.167,179.833 394.833,177.167 396.5,173.5C 410.241,161.262 423.575,148.428 436.5,135C 444.575,127.518 453.908,125.518 464.5,129C 468.894,130.131 473.227,131.465 477.5,133C 481.316,135.933 481.483,139.099 478,142.5C 454.259,165.648 430.926,188.982 408,212.5C 390.948,233.649 393.448,236.482 415.5,221C 450.564,192.936 481.898,161.27 509.5,126C 523.211,122.539 536.878,122.706 550.5,126.5C 556.433,124.579 562.433,122.746 568.5,121C 583.846,118.384 594.346,124.218 600,138.5C 601.362,148.055 599.695,157.055 595,165.5C 574.337,192.833 549.837,215.999 521.5,235C 496.703,249.094 470.037,255.427 441.5,254C 427.979,268.886 414.813,284.053 402,299.5C 396.167,305.333 390.333,311.167 384.5,317C 373.642,322.533 362.642,322.867 351.5,318C 350.214,315.978 349.214,313.811 348.5,311.5C 349.607,306.619 351.774,302.286 355,298.5C 364.76,285.983 374.76,273.65 385,261.5C 386.903,259.559 387.736,257.226 387.5,254.5C 380.53,253.74 373.864,251.907 367.5,249C 365.051,247.137 364.051,244.637 364.5,241.5C 364.445,237.944 365.278,234.611 367,231.5C 372.595,221.974 378.929,212.974 386,204.5C 386.667,203.833 386.667,203.167 386,202.5C 370.4,215.436 354.233,227.602 337.5,239C 331.736,242.216 325.736,244.883 319.5,247C 309.099,248.166 306.599,243.999 312,234.5C 322.619,220.213 333.619,206.213 345,192.5C 345.982,191.241 346.315,189.908 346,188.5C 327.46,204.709 308.626,220.543 289.5,236C 285.465,239.7 281.798,243.7 278.5,248C 276.283,249.275 273.949,250.275 271.5,251C 263.811,251.732 256.144,251.565 248.5,250.5C 181.277,269.519 112.944,275.352 43.5,268C 38.2983,267.131 33.2983,265.964 28.5,264.5C 26.4855,263.076 24.1522,262.41 21.5,262.5C 16.2909,261.93 11.4576,260.264 7,257.5C 6.48489,251.257 7.48489,245.257 10,239.5C 13.0746,237.73 16.4079,236.73 20,236.5C 32.4802,238.796 44.9802,240.963 57.5,243C 67.1487,244.124 76.8154,244.457 86.5,244C 93.4134,237.246 100.747,231.08 108.5,225.5C 112.167,223.833 114.833,221.167 116.5,217.5C 137.473,196.024 157.973,174.024 178,151.5C 206.427,122.237 235.593,93.9041 265.5,66.5C 269.436,64.2343 272.769,61.2343 275.5,57.5C 283.567,49.0964 292.234,41.4297 301.5,34.5C 302.043,34.44 302.376,34.1067 302.5,33.5C 299.02,32.1944 295.687,32.1944 292.5,33.5C 259.76,35.198 227.093,37.8647 194.5,41.5C 192.897,41.3118 191.563,41.8118 190.5,43C 195.684,43.1739 200.684,43.6739 205.5,44.5C 184.797,52.4026 163.63,54.7359 142,51.5C 141.882,47.3841 143.216,43.7175 146,40.5C 151.793,33.0386 157.959,25.8719 164.5,19C 177.352,14.0861 190.518,11.9195 204,12.5C 300.67,4.5974 397.503,2.43074 494.5,6C 496.968,7.58829 497.134,9.42162 495,11.5C 486.437,18.5338 477.271,24.7005 467.5,30C 463.877,31.1557 460.211,32.1557 456.5,33C 441.401,34.9042 426.234,35.7375 411,35.5C 391.586,35.3519 372.253,34.6852 353,33.5C 327.173,53.6511 302.84,75.6511 280,99.5C 237.131,152.036 189.298,199.536 136.5,242C 180.652,240.393 222.319,229.393 261.5,209C 270.926,202.742 279.926,195.909 288.5,188.5C 311.003,160.35 334.336,132.85 358.5,106C 368.759,104.408 379.093,104.074 389.5,105C 393.564,105.418 395.064,107.585 394,111.5C 379.333,126.833 364.667,142.167 350,157.5C 345.806,162.06 341.972,166.894 338.5,172C 339.167,172.667 339.833,172.667 340.5,172C 357.124,159.045 373.457,145.712 389.5,132C 399.898,125.481 409.398,126.648 418,135.5C 418.635,137.635 418.301,139.635 417,141.5C 403.333,155.167 389.667,168.833 376,182.5C 369.26,190.317 362.76,198.317 356.5,206.5C 356.667,206.833 356.833,207.167 357,207.5C 367.665,198.999 378.165,190.332 388.5,181.5 Z M 541.5,141.5 C 548.23,141.226 554.897,141.726 561.5,143C 569.095,144.358 571.262,148.524 568,155.5C 549.416,181.418 526.916,203.251 500.5,221C 487.194,228.993 472.861,233.326 457.5,234C 466.642,225.19 475.475,216.023 484,206.5C 503.061,184.614 522.227,162.947 541.5,141.5 Z"/></g>
<g><path style="opacity:1" fill="#f85d5e" d="M 292.5,33.5 C 295.687,32.1944 299.02,32.1944 302.5,33.5C 302.376,34.1067 302.043,34.44 301.5,34.5C 298.713,33.5233 295.713,33.19 292.5,33.5 Z"/></g>
<g><path style="opacity:1" fill="#faa6a1" d="M 194.5,41.5 C 198.353,42.1663 202.353,42.833 206.5,43.5C 206.376,44.1067 206.043,44.44 205.5,44.5C 200.684,43.6739 195.684,43.1739 190.5,43C 191.563,41.8118 192.897,41.3118 194.5,41.5 Z"/></g>
<g><path style="opacity:1" fill="#fa1408" d="M 1268.5,233.5 C 1267.31,233.97 1266.64,234.97 1266.5,236.5C 1266.52,237.726 1266.85,238.726 1267.5,239.5C 1269.63,240.629 1271.96,240.796 1274.5,240C 1293.2,230.292 1310.53,218.625 1326.5,205C 1345.72,184.43 1366.72,166.096 1389.5,150C 1402.54,141.266 1416.87,136.433 1432.5,135.5C 1438.01,135.268 1443.34,136.101 1448.5,138C 1453.99,140.579 1459.33,143.412 1464.5,146.5C 1477.19,142.5 1489.86,142.667 1502.5,147C 1504.58,148.076 1505.91,149.743 1506.5,152C 1501.97,159.536 1496.31,166.203 1489.5,172C 1467.07,189.762 1446.57,209.595 1428,231.5C 1426.99,233.025 1426.49,234.692 1426.5,236.5C 1426.62,237.586 1427.29,238.253 1428.5,238.5C 1429.42,238.457 1430.08,238.124 1430.5,237.5C 1439.05,233.889 1447.39,229.723 1455.5,225C 1472.45,213.052 1489.11,200.719 1505.5,188C 1513.09,187.271 1515.92,190.771 1514,198.5C 1488.39,221.439 1460.56,241.272 1430.5,258C 1421.66,262.376 1412.33,264.876 1402.5,265.5C 1394.61,266.393 1388.95,263.393 1385.5,256.5C 1385.3,253.482 1384.96,250.482 1384.5,247.5C 1385.03,244.763 1385.86,242.096 1387,239.5C 1392.41,231.418 1398.58,223.918 1405.5,217C 1405.17,216.833 1404.83,216.667 1404.5,216.5C 1386.13,234.521 1365.46,249.354 1342.5,261C 1330.84,266.894 1318.84,267.894 1306.5,264C 1300.38,259.154 1298.38,252.987 1300.5,245.5C 1301.83,245.167 1301.83,244.833 1300.5,244.5C 1296.21,244.977 1292.87,246.977 1290.5,250.5C 1275.98,260.961 1259.98,264.128 1242.5,260C 1236.08,257.089 1232.08,252.256 1230.5,245.5C 1230.81,243.076 1230.47,240.743 1229.5,238.5C 1228.89,238.624 1228.56,238.957 1228.5,239.5C 1209.95,253.973 1188.95,263.14 1165.5,267C 1159.98,267.817 1154.65,267.651 1149.5,266.5C 1147.09,265.232 1144.43,264.565 1141.5,264.5C 1136.07,262.899 1132.91,259.233 1132,253.5C 1131.9,245.124 1134.24,237.458 1139,230.5C 1146.43,221.066 1154.6,212.232 1163.5,204C 1163.17,203.833 1162.83,203.667 1162.5,203.5C 1144.8,220.377 1125.8,235.544 1105.5,249C 1092.24,257.46 1077.91,263.46 1062.5,267C 1049.75,269.64 1038.25,267.14 1028,259.5C 1023.18,252.998 1021.18,245.665 1022,237.5C 1001.27,252.968 978.108,262.801 952.5,267C 946.452,267.663 940.452,267.33 934.5,266C 927.376,263.712 923.376,258.879 922.5,251.5C 923.721,242.503 926.721,234.17 931.5,226.5C 931.289,224.576 930.623,224.243 929.5,225.5C 897.641,245.845 862.974,259.012 825.5,265C 817.167,265.667 808.833,265.667 800.5,265C 787.814,261.985 781.48,253.985 781.5,241C 781.475,232.878 783.642,225.378 788,218.5C 795.675,206.816 804.842,196.316 815.5,187C 828.477,177.021 841.143,166.688 853.5,156C 852.907,154.118 851.573,153.118 849.5,153C 839.682,152.025 830.015,152.692 820.5,155C 805.638,171.065 789.638,185.732 772.5,199C 769.167,200.667 765.833,202.333 762.5,204C 758.928,205.405 755.261,205.738 751.5,205C 750.299,204.097 749.465,202.931 749,201.5C 749.186,197.449 749.019,193.449 748.5,189.5C 742.348,186.717 736.348,187.217 730.5,191C 700.129,224.525 663.463,248.525 620.5,263C 605.549,268.31 590.549,268.644 575.5,264C 563.023,257.876 558.523,248.043 562,234.5C 566.564,223.03 572.897,212.697 581,203.5C 599.751,183.064 621.084,166.064 645,152.5C 655.402,155.104 663.569,160.771 669.5,169.5C 668.408,172.094 666.741,174.261 664.5,176C 641.156,192.675 621.989,213.175 607,237.5C 604.42,243.926 606.586,246.426 613.5,245C 642.211,232.626 667.378,215.126 689,192.5C 691.684,189.131 693.851,185.464 695.5,181.5C 694.872,179.742 693.872,178.242 692.5,177C 680.622,170.134 672.955,160.134 669.5,147C 670.624,141.759 673.29,137.426 677.5,134C 701.904,115.815 728.904,110.148 758.5,117C 773.498,124.981 776.664,136.481 768,151.5C 764.064,157.273 759.564,162.606 754.5,167.5C 766.004,169.331 776.337,166.665 785.5,159.5C 788.833,158.167 791.167,155.833 792.5,152.5C 795.316,149.546 797.649,146.212 799.5,142.5C 796.281,139.072 795.115,135.072 796,130.5C 812.583,112.944 832.083,99.4444 854.5,90C 864.486,86.0578 874.82,84.3911 885.5,85C 900.184,87.4071 902.184,93.7405 891.5,104C 881.539,108.096 871.873,112.762 862.5,118C 858.161,120.703 856.328,124.537 857,129.5C 861.731,132.921 867.064,134.254 873,133.5C 884.21,132.786 895.377,131.62 906.5,130C 915.5,129.333 924.5,129.333 933.5,130C 938.575,130.397 942.575,132.563 945.5,136.5C 942.163,143.343 937.497,149.176 931.5,154C 908.876,171.978 885.542,188.978 861.5,205C 851.393,212.473 841.56,220.306 832,228.5C 826.348,236.19 828.181,240.856 837.5,242.5C 850.196,240.743 862.53,237.576 874.5,233C 889.724,226.721 904.391,219.388 918.5,211C 949.721,190.94 978.721,168.107 1005.5,142.5C 1006.04,142.44 1006.38,142.107 1006.5,141.5C 1005.68,140.614 1004.68,140.281 1003.5,140.5C 993.367,140.994 983.367,140.161 973.5,138C 972.833,137 972.167,136 971.5,135C 976.674,125.492 983.007,116.825 990.5,109C 992.957,107.438 995.624,106.438 998.5,106C 1014.17,105.667 1029.83,105.333 1045.5,105C 1064.86,87.3099 1083.86,69.3099 1102.5,51C 1108.98,48.055 1115.82,46.8883 1123,47.5C 1131.27,47.3241 1139.44,48.1574 1147.5,50C 1149.91,50.7579 1150.91,52.4246 1150.5,55C 1150.62,57.5443 1149.78,59.711 1148,61.5C 1132.45,77.0124 1116.62,92.1791 1100.5,107C 1115.97,108.08 1131.31,110.08 1146.5,113C 1147.55,114.388 1147.72,115.888 1147,117.5C 1143.64,122.03 1140.47,126.697 1137.5,131.5C 1138.17,131.833 1138.83,132.167 1139.5,132.5C 1162.06,124.752 1185.06,122.918 1208.5,127C 1215.5,128.658 1221.67,131.825 1227,136.5C 1230.47,143.393 1229.97,150.059 1225.5,156.5C 1225.71,157.086 1226.04,157.586 1226.5,158C 1231.2,158.914 1235.7,158.414 1240,156.5C 1242.51,141.304 1251.01,130.804 1265.5,125C 1274.19,121.795 1282.86,121.795 1291.5,125C 1295.19,128.196 1295.35,131.696 1292,135.5C 1289.29,137.871 1286.96,140.537 1285,143.5C 1284.28,145.112 1284.45,146.612 1285.5,148C 1287.43,148.251 1289.27,148.751 1291,149.5C 1294.75,148.703 1298.58,148.203 1302.5,148C 1312.78,145.518 1323.11,143.351 1333.5,141.5C 1341.76,141.924 1348.59,145.257 1354,151.5C 1354.07,156.136 1352.24,159.969 1348.5,163C 1330.17,178 1311.83,193 1293.5,208C 1284.27,215.732 1275.93,224.232 1268.5,233.5 Z M 1064.5,138.5 C 1083.84,138.333 1103.17,138.5 1122.5,139C 1098.2,156.669 1075.2,176.002 1053.5,197C 1035.1,212.037 1015.1,224.704 993.5,235C 985.849,238.581 977.849,239.915 969.5,239C 967.556,236.847 967.056,234.347 968,231.5C 970.084,227.664 972.417,223.997 975,220.5C 1003.25,191.178 1033.09,163.845 1064.5,138.5 Z M 725.5,157.5 C 722.904,158.265 720.237,158.599 717.5,158.5C 708.077,153.539 708.411,149.039 718.5,145C 722.95,143.886 726.95,144.72 730.5,147.5C 732.055,152.39 730.389,155.723 725.5,157.5 Z M 1174.5,155.5 C 1178.51,155.334 1182.51,155.501 1186.5,156C 1188.99,158.244 1188.99,160.577 1186.5,163C 1156.78,185.054 1126.78,206.721 1096.5,228C 1087.15,234.176 1077.15,239.01 1066.5,242.5C 1063.04,241.215 1062.54,239.215 1065,236.5C 1089.96,213.87 1115.79,192.37 1142.5,172C 1152.31,164.597 1162.98,159.097 1174.5,155.5 Z M 1347.5,234.5 C 1346.21,234.737 1345.21,234.404 1344.5,233.5C 1349.08,227.353 1354.42,221.853 1360.5,217C 1377.83,203 1395.17,189 1412.5,175C 1418.75,170.208 1425.75,167.042 1433.5,165.5C 1435.99,166.025 1438.32,166.858 1440.5,168C 1417.6,189.561 1392.94,208.894 1366.5,226C 1360.37,229.4 1354.04,232.234 1347.5,234.5 Z M 1273.5,168.5 C 1277.37,168.185 1281.04,168.518 1284.5,169.5C 1268.76,183.412 1253.76,198.245 1239.5,214C 1226.12,224.696 1211.45,233.363 1195.5,240C 1191.62,241.64 1187.62,242.307 1183.5,242C 1182.43,241.261 1181.76,240.261 1181.5,239C 1182.92,235.908 1184.76,233.074 1187,230.5C 1205.67,212.931 1225.17,196.431 1245.5,181C 1249.5,177 1253.5,173 1257.5,169C 1262.82,168.501 1268.16,168.334 1273.5,168.5 Z"/></g>
<g><path style="opacity:1" fill="#ff5744" d="M 275.5,57.5 C 272.769,61.2343 269.436,64.2343 265.5,66.5C 268.231,62.7657 271.564,59.7657 275.5,57.5 Z"/></g>
<g><path style="opacity:1" fill="#fa8175" d="M 1003.5,140.5 C 1004.68,140.281 1005.68,140.614 1006.5,141.5C 1006.38,142.107 1006.04,142.44 1005.5,142.5C 1004.83,141.833 1004.17,141.167 1003.5,140.5 Z"/></g>
<g><path style="opacity:1" fill="#ff6c56" d="M 792.5,152.5 C 791.167,155.833 788.833,158.167 785.5,159.5C 787.5,156.833 789.833,154.5 792.5,152.5 Z"/></g>
<g><path style="opacity:1" fill="#fa6b60" d="M 725.5,157.5 C 724.508,159.026 723.008,159.693 721,159.5C 719.615,159.486 718.449,159.152 717.5,158.5C 720.237,158.599 722.904,158.265 725.5,157.5 Z"/></g>
<g><path style="opacity:1" fill="#fbb0ac" d="M 1273.5,168.5 C 1277.35,167.191 1281.35,167.191 1285.5,168.5C 1285.38,169.107 1285.04,169.44 1284.5,169.5C 1281.04,168.518 1277.37,168.185 1273.5,168.5 Z"/></g>
<g><path style="opacity:1" fill="#fd5f4d" d="M 396.5,173.5 C 394.833,177.167 392.167,179.833 388.5,181.5C 390.833,178.5 393.5,175.833 396.5,173.5 Z"/></g>
<g><path style="opacity:1" fill="#f78477" d="M 387.5,202.5 C 387.522,200.2 388.522,199.033 390.5,199C 389.837,200.518 388.837,201.685 387.5,202.5 Z"/></g>
<g><path style="opacity:1" fill="#fcd9da" d="M 1164.5,203.5 C 1164.5,202.833 1164.17,202.5 1163.5,202.5C 1167.31,198.865 1171.31,195.365 1175.5,192C 1176.17,191.333 1176.83,191.333 1177.5,192C 1173.51,196.311 1169.18,200.144 1164.5,203.5 Z"/></g>
<g><path style="opacity:1" fill="#fdc3c4" d="M 1406.5,216.5 C 1406.5,215.833 1406.17,215.5 1405.5,215.5C 1406.88,212.927 1408.88,211.427 1411.5,211C 1409.6,212.73 1407.93,214.563 1406.5,216.5 Z"/></g>
<g><path style="opacity:1" fill="#fb523f" d="M 116.5,217.5 C 114.833,221.167 112.167,223.833 108.5,225.5C 110.833,222.5 113.5,219.833 116.5,217.5 Z"/></g>
<g><path style="opacity:1" fill="#f6adac" d="M 929.5,225.5 C 930.623,224.243 931.289,224.576 931.5,226.5C 930.833,226.167 930.167,225.833 929.5,225.5 Z"/></g>
<g><path style="opacity:1" fill="#fc6a55" d="M 1268.5,233.5 C 1267.85,235.435 1267.52,237.435 1267.5,239.5C 1266.85,238.726 1266.52,237.726 1266.5,236.5C 1266.64,234.97 1267.31,233.97 1268.5,233.5 Z"/></g>
<g><path style="opacity:1" fill="#faaaa1" d="M 1344.5,233.5 C 1345.21,234.404 1346.21,234.737 1347.5,234.5C 1346.29,235.782 1344.96,235.782 1343.5,234.5C 1343.62,233.893 1343.96,233.56 1344.5,233.5 Z"/></g>
<g><path style="opacity:1" fill="#fb7b73" d="M 1426.5,236.5 C 1427.71,237.234 1429.04,237.567 1430.5,237.5C 1430.08,238.124 1429.42,238.457 1428.5,238.5C 1427.29,238.253 1426.62,237.586 1426.5,236.5 Z"/></g>
<g><path style="opacity:1" fill="#fb908e" d="M 1228.5,239.5 C 1228.56,238.957 1228.89,238.624 1229.5,238.5C 1230.47,240.743 1230.81,243.076 1230.5,245.5C 1229.83,243.5 1229.17,241.5 1228.5,239.5 Z"/></g>
<g><path style="opacity:1" fill="#f95240" d="M 1300.5,244.5 C 1300.5,244.833 1300.5,245.167 1300.5,245.5C 1297.15,247.196 1293.82,248.863 1290.5,250.5C 1292.87,246.977 1296.21,244.977 1300.5,244.5 Z"/></g>
<g><path style="opacity:1" fill="#fb6757" d="M 1384.5,247.5 C 1384.96,250.482 1385.3,253.482 1385.5,256.5C 1383.52,253.627 1383.19,250.627 1384.5,247.5 Z"/></g>
<g><path style="opacity:1" fill="#fc635a" d="M 21.5,262.5 C 24.1522,262.41 26.4855,263.076 28.5,264.5C 25.8478,264.59 23.5145,263.924 21.5,262.5 Z"/></g>
<g><path style="opacity:1" fill="#fc625a" d="M 1141.5,264.5 C 1144.43,264.565 1147.09,265.232 1149.5,266.5C 1146.5,266.706 1143.84,266.04 1141.5,264.5 Z"/></g>
<g><path style="opacity:1" fill="#6b6b6b" d="M 146.5,349.5 C 108.485,348.839 70.8185,349.506 33.5,351.5C 32.596,350.791 32.2627,349.791 32.5,348.5C 70.6703,348.168 108.67,348.501 146.5,349.5 Z"/></g>
<g><path style="opacity:1" fill="#6f6f70" d="M 221.5,349.5 C 200.993,349.17 180.66,349.503 160.5,350.5C 159.957,350.44 159.624,350.107 159.5,349.5C 170,349.167 180.5,348.833 191,348.5C 201.909,348.488 212.075,348.822 221.5,349.5 Z"/></g>
<g><path style="opacity:1" fill="#646464" d="M 357.5,349.5 C 316.663,349.168 275.997,349.501 235.5,350.5C 234.957,350.44 234.624,350.107 234.5,349.5C 275.665,348.169 316.665,348.169 357.5,349.5 Z"/></g>
<g><path style="opacity:1" fill="#727272" d="M 798.5,350.5 C 788.506,349.833 778.339,349.5 768,349.5C 757.477,349.501 747.311,350.168 737.5,351.5C 736.596,350.791 736.263,349.791 736.5,348.5C 757.511,348.167 778.511,348.5 799.5,349.5C 799.376,350.107 799.043,350.44 798.5,350.5 Z"/></g>
<g><path style="opacity:1" fill="#080808" d="M 146.5,349.5 C 147.147,350.274 147.48,351.274 147.5,352.5C 146.635,361.031 145.135,369.364 143,377.5C 140.842,374.836 138.009,373.336 134.5,373C 117.49,372.167 100.49,372.334 83.5,373.5C 80.6445,383.293 78.6445,393.293 77.5,403.5C 77.3898,405.374 78.0564,406.874 79.5,408C 92.5078,407.624 105.508,407.791 118.5,408.5C 124.198,408.019 129.864,407.352 135.5,406.5C 136.833,406.5 137.5,407.167 137.5,408.5C 136.758,418.04 135.091,427.373 132.5,436.5C 129.93,435.366 127.264,434.532 124.5,434C 107.593,433.175 90.7594,433.342 74,434.5C 69.2343,452.527 66.9009,470.86 67,489.5C 67.4497,491.519 68.283,493.352 69.5,495C 69.1667,495.333 68.8333,495.667 68.5,496C 48.5449,496.453 28.7116,496.62 9,496.5C 8.33333,495.5 8.33333,494.5 9,493.5C 12.4806,489.069 14.814,484.069 16,478.5C 18.0602,465.139 20.2269,451.806 22.5,438.5C 24.217,435.155 24.8836,431.489 24.5,427.5C 27.6145,404.812 30.9479,382.145 34.5,359.5C 34.163,356.824 33.8297,354.157 33.5,351.5C 70.8185,349.506 108.485,348.839 146.5,349.5 Z"/></g>
<g><path style="opacity:1" fill="#050505" d="M 221.5,349.5 C 218.463,354.768 216.297,360.435 215,366.5C 213.498,376.18 211.998,385.846 210.5,395.5C 209.883,395.611 209.383,395.944 209,396.5C 208.503,399.146 208.336,401.813 208.5,404.5C 205.328,428.206 201.828,451.873 198,475.5C 197.501,480.489 197.334,485.489 197.5,490.5C 197.5,492.167 197.5,493.833 197.5,495.5C 176.833,495.5 156.167,495.5 135.5,495.5C 139.98,489.201 142.813,482.201 144,474.5C 149.996,436.359 155.829,398.192 161.5,360C 160.893,356.857 160.559,353.69 160.5,350.5C 180.66,349.503 200.993,349.17 221.5,349.5 Z"/></g>
<g><path style="opacity:1" fill="#050505" d="M 357.5,349.5 C 371.053,350.552 378.553,357.886 380,371.5C 380.333,378.183 379.999,384.85 379,391.5C 375.853,413.529 372.52,435.529 369,457.5C 367.727,468.663 363.727,478.663 357,487.5C 349.955,493.459 341.789,496.126 332.5,495.5C 292.33,495.832 252.33,495.499 212.5,494.5C 217.636,486.306 220.47,477.306 221,467.5C 226,434.832 231,402.166 236,369.5C 236.706,363.13 236.539,356.797 235.5,350.5C 275.997,349.501 316.663,349.168 357.5,349.5 Z M 307.5,473.5 C 296.167,473.5 284.833,473.5 273.5,473.5C 273.5,472.5 273.5,471.5 273.5,470.5C 278.393,441.714 282.726,412.714 286.5,383.5C 287.434,380.344 288.101,377.011 288.5,373.5C 293.96,372.171 299.793,371.504 306,371.5C 311.833,371.667 317.667,371.833 323.5,372C 324.931,372.465 326.097,373.299 327,374.5C 323.55,406.316 318.883,437.983 313,469.5C 311.853,471.819 310.019,473.152 307.5,473.5 Z"/></g>
<g><path style="opacity:1" fill="#070707" d="M 390.5,420.5 C 391.972,416.081 392.638,411.414 392.5,406.5C 392.866,391.701 396.366,377.701 403,364.5C 409.319,355.916 417.819,350.75 428.5,349C 461.5,348.333 494.5,348.333 527.5,349C 542.987,352.251 550.32,361.918 549.5,378C 546.321,404.588 542.487,431.088 538,457.5C 537.025,470.47 531.858,481.303 522.5,490C 518.469,492.455 514.136,494.121 509.5,495C 476.855,496.582 444.188,496.915 411.5,496C 393.034,496.033 383.7,486.866 383.5,468.5C 384.774,452.208 387.107,436.208 390.5,420.5 Z M 459.5,372.5 C 469.839,372.334 480.172,372.5 490.5,373C 492.329,373.273 493.829,374.107 495,375.5C 492.411,406.371 488.078,437.038 482,467.5C 480.878,469.624 479.378,471.457 477.5,473C 465.238,474.606 452.904,474.939 440.5,474C 438.135,471.939 436.801,469.272 436.5,466C 440.719,439.183 444.886,412.35 449,385.5C 449.235,378.294 452.735,373.961 459.5,372.5 Z"/></g>
<g><path style="opacity:1" fill="#060606" d="M 706.5,445.5 C 705.778,445.918 705.278,446.584 705,447.5C 704.503,450.146 704.336,452.813 704.5,455.5C 703.831,466.006 700.664,475.673 695,484.5C 687.945,492.354 679.111,496.021 668.5,495.5C 626.997,495.832 585.663,495.499 544.5,494.5C 547.431,490.975 549.598,486.975 551,482.5C 557.373,444.559 563.373,406.559 569,368.5C 569.609,361.811 569.443,355.144 568.5,348.5C 610.168,348.333 651.835,348.5 693.5,349C 709.486,351.932 716.819,361.599 715.5,378C 713.387,400.624 710.387,423.124 706.5,445.5 Z M 660.5,394.5 C 659.475,397.974 658.808,401.64 658.5,405.5C 655.808,423.842 652.975,442.175 650,460.5C 649.605,464.019 648.605,467.352 647,470.5C 646.097,471.701 644.931,472.535 643.5,473C 631.167,473.667 618.833,473.667 606.5,473C 612.342,439.278 617.675,405.444 622.5,371.5C 635.266,371.039 647.933,371.539 660.5,373C 661.894,374.739 662.561,376.739 662.5,379C 661.692,384.157 661.025,389.324 660.5,394.5 Z"/></g>
<g><path style="opacity:1" fill="#050505" d="M 798.5,350.5 C 795.531,355.447 793.365,360.78 792,366.5C 790.545,376.187 789.045,385.854 787.5,395.5C 786.883,395.611 786.383,395.944 786,396.5C 785.502,399.482 785.335,402.482 785.5,405.5C 782.235,429.524 778.735,453.524 775,477.5C 774.208,483.288 774.708,488.954 776.5,494.5C 776.376,495.107 776.043,495.44 775.5,495.5C 754.66,495.831 733.993,495.497 713.5,494.5C 717.998,487.513 720.831,479.846 722,471.5C 727.315,434.296 732.815,397.13 738.5,360C 737.652,357.23 737.319,354.397 737.5,351.5C 747.311,350.168 757.477,349.501 768,349.5C 778.339,349.5 788.506,349.833 798.5,350.5 Z"/></g>
<g><path style="opacity:1" fill="#060606" d="M 911.5,495.5 C 870.997,495.832 830.663,495.499 790.5,494.5C 793.181,490.472 795.347,486.139 797,481.5C 798.61,472.172 800.11,462.839 801.5,453.5C 803.217,450.155 803.884,446.489 803.5,442.5C 804.887,430.125 806.554,417.791 808.5,405.5C 810.217,402.155 810.884,398.489 810.5,394.5C 812.067,383.364 813.4,372.198 814.5,361C 814.69,356.806 814.023,352.806 812.5,349C 853.833,348.333 895.167,348.333 936.5,349C 946.682,349.537 953.848,354.371 958,363.5C 959.455,370.444 959.788,377.444 959,384.5C 955.48,407.139 952.147,429.806 949,452.5C 947.761,464.887 943.761,476.22 937,486.5C 929.846,493.163 921.346,496.163 911.5,495.5 Z M 900.5,371.5 C 904.147,371.813 906.147,373.813 906.5,377.5C 903.952,393.456 901.619,409.456 899.5,425.5C 898.111,430.269 897.444,435.269 897.5,440.5C 895.782,448.655 894.282,456.989 893,465.5C 892.394,468.548 890.894,471.048 888.5,473C 876.167,473.667 863.833,473.667 851.5,473C 857.008,440.28 862.008,407.446 866.5,374.5C 867.404,373.791 867.737,372.791 867.5,371.5C 878.5,371.5 889.5,371.5 900.5,371.5 Z"/></g>
<g><path style="opacity:1" fill="#070707" d="M 981.5,494.5 C 979.485,493.076 977.152,492.41 974.5,492.5C 970.298,491.137 967.131,488.47 965,484.5C 963.144,479.155 961.977,473.655 961.5,468C 965.347,438.735 969.847,409.568 975,380.5C 978.988,362.845 989.821,352.345 1007.5,349C 1041.87,348.034 1076.21,348.368 1110.5,350C 1123.02,355.012 1128.68,364.345 1127.5,378C 1124.32,405.253 1120.49,432.42 1116,459.5C 1113.8,484.368 1100.3,496.535 1075.5,496C 1047.5,496.667 1019.5,496.667 991.5,496C 987.975,495.821 984.641,495.321 981.5,494.5 Z M 1036.5,372.5 C 1047.51,372.333 1058.51,372.5 1069.5,373C 1072.47,374.141 1074.14,376.308 1074.5,379.5C 1070.55,406.517 1066.39,433.517 1062,460.5C 1062.04,466.939 1059.21,471.439 1053.5,474C 1042.17,474.667 1030.83,474.667 1019.5,474C 1017.67,473.5 1016.5,472.333 1016,470.5C 1018.8,441.382 1022.8,412.382 1028,383.5C 1028.84,378.172 1031.68,374.505 1036.5,372.5 Z"/></g>
<g><path style="opacity:1" fill="#838384" d="M 1216.5,352.5 C 1241.33,351.502 1266.33,351.169 1291.5,351.5C 1291.79,353.735 1291.46,355.735 1290.5,357.5C 1290.5,355.833 1290.5,354.167 1290.5,352.5C 1265.83,352.5 1241.17,352.5 1216.5,352.5 Z"/></g>
<g><path style="opacity:1" fill="#868787" d="M 1478.5,353.5 C 1471.34,352.834 1464.01,352.5 1456.5,352.5C 1448.8,352.503 1441.47,353.169 1434.5,354.5C 1433.6,353.791 1433.26,352.791 1433.5,351.5C 1448.85,351.167 1464.18,351.501 1479.5,352.5C 1479.38,353.107 1479.04,353.44 1478.5,353.5 Z"/></g>
<g><path style="opacity:1" fill="#090909" d="M 1216.5,352.5 C 1241.17,352.5 1265.83,352.5 1290.5,352.5C 1290.5,354.167 1290.5,355.833 1290.5,357.5C 1290.38,363.444 1289.38,369.11 1287.5,374.5C 1286.83,375.5 1286.17,376.5 1285.5,377.5C 1283.47,375.82 1281.14,374.653 1278.5,374C 1263.83,373.333 1249.17,373.333 1234.5,374C 1232.67,374.5 1231.5,375.667 1231,377.5C 1229.46,384.421 1228.63,391.421 1228.5,398.5C 1239.79,400.478 1251.45,401.145 1263.5,400.5C 1277.69,401.193 1284.35,408.693 1283.5,423C 1281.84,440.29 1279.34,457.456 1276,474.5C 1271.29,489.95 1260.79,497.117 1244.5,496C 1222.17,496.667 1199.83,496.667 1177.5,496C 1176.69,487.866 1177.02,479.699 1178.5,471.5C 1178.83,470.833 1179.17,470.167 1179.5,469.5C 1182.05,470.942 1184.72,472.108 1187.5,473C 1203.5,473.667 1219.5,473.667 1235.5,473C 1237.26,471.992 1238.43,470.492 1239,468.5C 1240.24,461.543 1241.08,454.543 1241.5,447.5C 1228.5,447.667 1215.5,447.5 1202.5,447C 1194.07,447.212 1188.57,443.379 1186,435.5C 1185.34,432.023 1184.84,428.523 1184.5,425C 1186.31,409.374 1188.64,393.874 1191.5,378.5C 1192.92,376.485 1193.59,374.152 1193.5,371.5C 1196.21,359.296 1203.87,352.963 1216.5,352.5 Z"/></g>
<g><path style="opacity:1" fill="#080808" d="M 1331.5,471.5 C 1330.78,471.918 1330.28,472.584 1330,473.5C 1329.5,476.482 1329.34,479.482 1329.5,482.5C 1330.06,486.853 1330.73,491.186 1331.5,495.5C 1315.83,495.667 1300.16,495.5 1284.5,495C 1288.19,489.779 1290.36,483.945 1291,477.5C 1294.53,452.31 1298.36,427.31 1302.5,402.5C 1303.97,398.081 1304.64,393.414 1304.5,388.5C 1305.33,379.657 1306.33,370.824 1307.5,362C 1307.2,358.489 1306.86,354.989 1306.5,351.5C 1335.5,351.333 1364.5,351.5 1393.5,352C 1402,351.839 1408.84,355.006 1414,361.5C 1415.06,365.446 1415.9,369.446 1416.5,373.5C 1415.07,387.949 1412.9,402.283 1410,416.5C 1408.73,420.869 1406.57,424.703 1403.5,428C 1399.47,430.274 1395.47,432.44 1391.5,434.5C 1395.06,451.142 1398.56,467.809 1402,484.5C 1403.18,488.363 1405.01,491.863 1407.5,495C 1391.93,495.824 1376.43,495.657 1361,494.5C 1357.56,473.81 1354.06,453.143 1350.5,432.5C 1345.9,432.2 1341.4,432.533 1337,433.5C 1335.06,446.16 1333.22,458.827 1331.5,471.5 Z M 1343.5,410.5 C 1342.79,409.596 1341.79,409.263 1340.5,409.5C 1340.5,407.833 1340.5,406.167 1340.5,404.5C 1342.62,394.37 1344.28,384.037 1345.5,373.5C 1355.51,373.334 1365.51,373.5 1375.5,374C 1376.1,384.182 1375.27,394.349 1373,404.5C 1372.33,407.833 1370.33,409.833 1367,410.5C 1359.23,409.43 1351.39,409.43 1343.5,410.5 Z"/></g>
<g><path style="opacity:1" fill="#070707" d="M 1478.5,353.5 C 1476.31,357.915 1474.81,362.582 1474,367.5C 1468.83,402.514 1463.66,437.514 1458.5,472.5C 1457.6,473.209 1457.26,474.209 1457.5,475.5C 1472.34,475.829 1487.01,475.496 1501.5,474.5C 1503.47,473.838 1505.47,473.172 1507.5,472.5C 1507.83,473.5 1508.17,474.5 1508.5,475.5C 1507.12,482.366 1505.45,489.033 1503.5,495.5C 1473.48,496.159 1443.81,495.492 1414.5,493.5C 1416.46,487.988 1417.96,482.321 1419,476.5C 1424,441.833 1429,407.167 1434,372.5C 1434.5,366.509 1434.67,360.509 1434.5,354.5C 1441.47,353.169 1448.8,352.503 1456.5,352.5C 1464.01,352.5 1471.34,352.834 1478.5,353.5 Z"/></g>
<g><path style="opacity:1" fill="#737474" d="M 900.5,371.5 C 889.5,371.5 878.5,371.5 867.5,371.5C 867.737,372.791 867.404,373.791 866.5,374.5C 866.5,373.167 866.5,371.833 866.5,370.5C 878.012,370.172 889.346,370.505 900.5,371.5 Z"/></g>
<g><path style="opacity:1" fill="#585858" d="M 288.5,373.5 C 288.101,377.011 287.434,380.344 286.5,383.5C 286.336,380.813 286.503,378.146 287,375.5C 287.278,374.584 287.778,373.918 288.5,373.5 Z"/></g>
<g><path style="opacity:1" fill="#535454" d="M 1193.5,371.5 C 1193.59,374.152 1192.92,376.485 1191.5,378.5C 1191.41,375.848 1192.08,373.515 1193.5,371.5 Z"/></g>
<g><path style="opacity:1" fill="#7f7c80" d="M 1287.5,374.5 C 1287.76,375.978 1287.43,377.311 1286.5,378.5C 1285.89,378.376 1285.56,378.043 1285.5,377.5C 1286.17,376.5 1286.83,375.5 1287.5,374.5 Z"/></g>
<g><path style="opacity:1" fill="#4d4e4d" d="M 1304.5,388.5 C 1304.64,393.414 1303.97,398.081 1302.5,402.5C 1302.36,397.586 1303.03,392.919 1304.5,388.5 Z"/></g>
<g><path style="opacity:1" fill="#595958" d="M 210.5,395.5 C 210.142,398.689 209.475,401.689 208.5,404.5C 208.336,401.813 208.503,399.146 209,396.5C 209.383,395.944 209.883,395.611 210.5,395.5 Z"/></g>
<g><path style="opacity:1" fill="#5c5a5a" d="M 787.5,395.5 C 787.101,399.011 786.434,402.344 785.5,405.5C 785.335,402.482 785.502,399.482 786,396.5C 786.383,395.944 786.883,395.611 787.5,395.5 Z"/></g>
<g><path style="opacity:1" fill="#b1b2b2" d="M 1228.5,398.5 C 1240.27,399.147 1251.93,399.814 1263.5,400.5C 1251.45,401.145 1239.79,400.478 1228.5,398.5 Z"/></g>
<g><path style="opacity:1" fill="#575857" d="M 660.5,394.5 C 660.884,398.489 660.217,402.155 658.5,405.5C 658.808,401.64 659.475,397.974 660.5,394.5 Z"/></g>
<g><path style="opacity:1" fill="#585858" d="M 810.5,394.5 C 810.884,398.489 810.217,402.155 808.5,405.5C 808.808,401.64 809.475,397.974 810.5,394.5 Z"/></g>
<g><path style="opacity:1" fill="#9e9a9f" d="M 135.5,406.5 C 136.209,405.596 137.209,405.263 138.5,405.5C 138.737,406.791 138.404,407.791 137.5,408.5C 137.5,407.167 136.833,406.5 135.5,406.5 Z"/></g>
<g><path style="opacity:1" fill="#818081" d="M 1340.5,404.5 C 1340.5,406.167 1340.5,407.833 1340.5,409.5C 1341.79,409.263 1342.79,409.596 1343.5,410.5C 1342.17,410.5 1340.83,410.5 1339.5,410.5C 1339.21,408.265 1339.54,406.265 1340.5,404.5 Z"/></g>
<g><path style="opacity:1" fill="#494c4a" d="M 392.5,406.5 C 392.638,411.414 391.972,416.081 390.5,420.5C 390.362,415.586 391.028,410.919 392.5,406.5 Z"/></g>
<g><path style="opacity:1" fill="#434441" d="M 899.5,425.5 C 899.698,430.75 899.031,435.75 897.5,440.5C 897.444,435.269 898.111,430.269 899.5,425.5 Z"/></g>
<g><path style="opacity:1" fill="#575957" d="M 24.5,427.5 C 24.8836,431.489 24.217,435.155 22.5,438.5C 22.8084,434.64 23.4751,430.974 24.5,427.5 Z"/></g>
<g><path style="opacity:1" fill="#666566" d="M 706.5,445.5 C 706.101,449.011 705.434,452.344 704.5,455.5C 704.336,452.813 704.503,450.146 705,447.5C 705.278,446.584 705.778,445.918 706.5,445.5 Z"/></g>
<g><path style="opacity:1" fill="#555655" d="M 803.5,442.5 C 803.884,446.489 803.217,450.155 801.5,453.5C 801.808,449.64 802.475,445.974 803.5,442.5 Z"/></g>
<g><path style="opacity:1" fill="#c1c3c1" d="M 273.5,470.5 C 273.5,471.5 273.5,472.5 273.5,473.5C 284.833,473.5 296.167,473.5 307.5,473.5C 296.012,474.495 284.345,474.828 272.5,474.5C 272.232,472.901 272.566,471.568 273.5,470.5 Z"/></g>
<g><path style="opacity:1" fill="#727172" d="M 1331.5,471.5 C 1331.07,475.337 1330.4,479.003 1329.5,482.5C 1329.34,479.482 1329.5,476.482 1330,473.5C 1330.28,472.584 1330.78,471.918 1331.5,471.5 Z"/></g>
<g><path style="opacity:1" fill="#828382" d="M 1458.5,472.5 C 1472.46,474.483 1486.79,475.15 1501.5,474.5C 1487.01,475.496 1472.34,475.829 1457.5,475.5C 1457.26,474.209 1457.6,473.209 1458.5,472.5 Z"/></g>
<g><path style="opacity:1" fill="#535453" d="M 974.5,492.5 C 977.152,492.41 979.485,493.076 981.5,494.5C 978.848,494.59 976.515,493.924 974.5,492.5 Z"/></g>
<g><path style="opacity:1" fill="#bfbfc0" d="M 197.5,490.5 C 198.461,492.265 198.795,494.265 198.5,496.5C 177.327,496.831 156.327,496.497 135.5,495.5C 156.167,495.5 176.833,495.5 197.5,495.5C 197.5,493.833 197.5,492.167 197.5,490.5 Z"/></g>
<g><path style="opacity:1" fill="#b5b6b6" d="M 212.5,494.5 C 252.33,495.499 292.33,495.832 332.5,495.5C 292.331,496.831 251.998,496.831 211.5,495.5C 211.624,494.893 211.957,494.56 212.5,494.5 Z"/></g>
<g><path style="opacity:1" fill="#b0b1b1" d="M 544.5,494.5 C 585.663,495.499 626.997,495.832 668.5,495.5C 626.998,496.831 585.331,496.831 543.5,495.5C 543.624,494.893 543.957,494.56 544.5,494.5 Z"/></g>
<g><path style="opacity:1" fill="#c4c4c4" d="M 713.5,494.5 C 733.993,495.497 754.66,495.831 775.5,495.5C 754.663,496.828 733.663,496.828 712.5,495.5C 712.624,494.893 712.957,494.56 713.5,494.5 Z"/></g>
<g><path style="opacity:1" fill="#b0b0b2" d="M 790.5,494.5 C 830.663,495.499 870.997,495.832 911.5,495.5C 870.998,496.831 830.331,496.831 789.5,495.5C 789.624,494.893 789.957,494.56 790.5,494.5 Z"/></g>
<g><path style="opacity:1" fill="#b9b9ba" d="M 1414.5,493.5 C 1443.81,495.492 1473.48,496.159 1503.5,495.5C 1473.67,496.664 1443.67,496.831 1413.5,496C 1412.43,494.841 1412.77,494.008 1414.5,493.5 Z"/></g>
</svg>
